<svg width="31" height="22" viewBox="0 0 31 22" fill="none" xmlns="http://www.w3.org/2000/svg">
<g clip-path="url(#clip0_2504_2815)">
<path d="M1.98148 0.333008H28.6481C29.0411 0.333008 29.4179 0.455924 29.6957 0.674716C29.9736 0.893509 30.1297 1.19025 30.1297 1.49967V20.1664C30.1297 20.4758 29.9736 20.7725 29.6957 20.9913C29.4179 21.2101 29.0411 21.333 28.6481 21.333H1.98148C1.58857 21.333 1.21175 21.2101 0.933916 20.9913C0.656084 20.7725 0.5 20.4758 0.5 20.1664V1.49967C0.5 1.19025 0.656084 0.893509 0.933916 0.674716C1.21175 0.455924 1.58857 0.333008 1.98148 0.333008ZM15.4037 10.4631L5.90444 4.11067L3.98592 5.88867L15.423 13.5361L26.6541 5.88284L24.7163 4.11767L15.4052 10.4631H15.4037Z" fill="#424242" fill-opacity="0.5"/>
</g>
<defs>
<clipPath id="clip0_2504_2815">
<rect width="30" height="21" fill="white" transform="translate(0.5 0.333008)"/>
</clipPath>
</defs>
</svg>
